<?xml version="1.0" encoding="utf-8"?>
<!-- Generator: Adobe Illustrator 18.1.1, SVG Export Plug-In . SVG Version: 6.00 Build 0)  -->
<svg version="1.1" id="Logo" xmlns="http://www.w3.org/2000/svg" xmlns:xlink="http://www.w3.org/1999/xlink" x="0px" y="0px"
	 viewBox="0 0 609.3 183.3" enable-background="new 0 0 609.3 183.3" xml:space="preserve">
<path fill="#FFFFFF" d="M268.1,85.1c0,0,24.4-8.5,20.7-38.6c-1.8-14.4-12-24.4-24.2-27.6c-8.9-2.3-18.9-3.9-29.9-4.4
	c-6.3-0.3-13-0.4-21.1-0.4c-5.8,0-11.5,0.1-17.3,0.1c-4.3,0-8.6,0.1-12.9,0.1c-3.2,0-6.5,0.3-9.7,0.9c-6.8,1.2-10.7,5.3-11.5,12.3
	c-0.4,3.3-0.6,6.3-0.6,9c0,36.7-0.1,73.5,0,110.3c0,3.4,0.2,6,0.7,9.1c1,6.2,4.3,9.7,10.4,11c2.8,0.6,5.1,0.8,7.2,0.9l11.5,0.1
	c7.4,0,14.9,0.1,22.3,0.1c10.8,0,19.7-0.1,28-0.2c13-0.2,23.9-3.1,33.5-8.7c11.2-6.6,18-17.7,19.9-30.6
	C299.5,99.2,268.1,85.1,268.1,85.1z M212.6,54.7l3.7,0.2c1.7,0.1,3.3,0.1,5,0.2c4,0.1,8.2,0.3,12.3,0.8c5.5,0.7,8.8,4.5,9.1,10.4
	c0.3,6.5-2.9,11-8.5,11.9c-4.1,0.7-8.3,0.8-12.4,1c-1.8,0.1-3.6,0.2-5.5,0.3l-3.8,0.3V54.7z M237.9,126c-2.4,0.9-5.1,1.4-7.9,1.5
	c-1.9,0.1-3.7,0.1-5.6,0.1c-1.3,0-2.7,0-4,0c-1.4,0-2.8,0-4.2,0h-3.5v-24.5l3.7,0.2c2,0.1,3.9,0.2,5.9,0.3c4.7,0.2,9.5,0.4,14.2,1
	c5,0.6,8.1,4.6,8.2,10.5C244.9,120.5,242.5,124.4,237.9,126z M452.8,140.8c-15.6-6.5-23.9-16.8-31.8-29.1l-2.5-4l4.1-2.4
	c1.1-0.6,2.2-1.2,3.2-1.8c2.1-1.2,4-2.2,5.6-3.5c3.3-2.5,5.6-4.5,7.4-6.6c7.4-8.7,9.8-21.2,8-34.1c-2-14.1-9.8-26.8-20.8-34.1
	c-11-7.3-23.1-10.8-40.3-10.9c-16.5-0.1-33.7-0.1-50.3,0c-3.1,0-6.4,0.3-9.7,0.8c-6.9,1.1-10.8,5.2-11.7,12.1
	c-0.4,3.1-0.6,6.1-0.6,9c0,36.9,0,73.8,0,110.7c0,2.9,0.2,6,0.6,8.9c1,7.1,4.4,10.7,10.8,11.5c7.7,0.9,17,0.9,23.5,0.2
	c9.1-1,13.3-5.4,13.5-15.2c0.2-6.7,0.2-13.6,0.2-20.2c0-3,0-5.9,0-8.9l0-3.2l0-6.3c0,0,5.5-0.5,7.2-0.5c6.5,0,7.9,4.2,10.2,10.1
	l0.5,1.2c0.3,0.7,0.5,1.3,0.8,2l0.5,1.2c5.2,12.3,10.1,23.9,19,33.3c5.9,6.2,15,8,23.5,8c3.6,0,7.2-0.7,10.6-1.9
	c10.2-3.8,18.1-15.1,18.6-26.2C452.8,140.9,452.8,140.8,452.8,140.8z M386.5,81.7c-4.2,0.7-8.2,0.9-12.6,1c-1.8,0.1-3.7,0.1-5.6,0.3
	l-3.7,0.2V55.5l3.7,0.2c1.8,0.1,3.6,0.2,5.4,0.2c4.1,0.1,8.4,0.3,12.7,0.9c6.1,0.9,10.2,5.8,10.2,12.2
	C396.7,75.6,392.6,80.6,386.5,81.7z M137.5,101.8c-1.6-13-4-25.6-6.6-35c-6.7-31.1-28.3-50.9-55.2-51.2c-26.8,0.2-48.6,20-55.3,51.2
	c-3.9,13.9-6.4,29.9-7.8,45.7c-0.6,7-0.9,13.9-1,21.8c-0.1,15.2,2.3,25.1,7.3,30.2c3.1,3.2,7.6,4.7,13.5,4.7
	c10.9,0,18.9-8.4,23.4-16.2c3.8-6.7,8.5-14.9,19.8-14.9c11.3,0,16,8.3,19.8,14.9c4.5,7.9,12.5,16.2,23.4,16.2
	c5.9,0,10.4-1.5,13.5-4.7c5.1-5.1,7.5-15,7.3-30.2C139.7,122.5,139.1,112.9,137.5,101.8z M60.7,101l0.3-5c0.1-1.8,0.2-3.6,0.2-5.4
	c0.2-4.2,0.3-8.5,0.9-12.8c1-6.6,6.5-11.2,13.3-11.2c7.2,0,12.7,4.5,13.8,11.2c0.7,4.2,0.9,8.6,1,12.8c0.1,1.8,0.1,3.6,0.3,5.5
	l0.3,5H60.7z M595.2,101.8c-1.6-13-4-25.6-6.6-35c-6.7-31.1-28.3-50.9-55.2-51.2c-26.8,0.2-48.6,20-55.3,51.2
	c-3.9,13.9-6.4,29.9-7.8,45.7c-0.6,7-0.9,13.9-1,21.8c-0.1,15.2,2.3,25.1,7.3,30.2c3.1,3.2,7.6,4.7,13.5,4.7
	c10.9,0,18.9-8.4,23.4-16.2c3.8-6.7,8.5-14.9,19.8-14.9c11.3,0,16,8.3,19.8,14.9c4.5,7.9,12.5,16.2,23.4,16.2
	c5.9,0,10.4-1.5,13.5-4.7c5.1-5.1,7.5-15,7.3-30.2C597.4,122.5,596.8,112.9,595.2,101.8z M518.4,101l0.3-5c0.1-1.8,0.2-3.6,0.2-5.4
	c0.2-4.2,0.3-8.5,0.9-12.8c1-6.6,6.5-11.2,13.3-11.2c7.2,0,12.7,4.5,13.8,11.2c0.7,4.2,0.9,8.6,1,12.8c0.1,1.8,0.1,3.6,0.3,5.5
	l0.3,5H518.4z"/>
</svg>
